<?xml version="1.0" encoding="utf-8"?>
<!-- Generator: Adobe Illustrator 25.4.1, SVG Export Plug-In . SVG Version: 6.00 Build 0)  -->
<svg version="1.1" id="图层_1" xmlns="http://www.w3.org/2000/svg" xmlns:xlink="http://www.w3.org/1999/xlink" x="0px" y="0px"
	 viewBox="0 0 24 24" style="enable-background:new 0 0 24 24;" xml:space="preserve">
<style type="text/css">
	.st0{fill:#FFFFFF;}
</style>
<path class="st0" d="M12,0.5c6.3,0,11.5,5.2,11.5,11.5s-5.1,11.5-11.4,11.6C5.7,23.6,0.6,18.4,0.5,12C0.5,5.7,5.7,0.5,12,0.5z
	 M8.8,12c0.6-0.6,1-1.2,1.6-1.7c0.1-0.1,0.4-0.1,0.6-0.2c0,0.2,0.1,0.4,0,0.6c-0.7,2.2-1.4,4.3-2,6.5c-0.4,1.4,0.4,2.3,1.8,2.1
	c1.3-0.2,2.1-1,2.9-2c0.3-0.4,0.5-0.8,0.3-1.3c-0.2,0.3-0.4,0.5-0.6,0.7c-0.4,0.4-0.7,0.8-1.1,1.1c-0.1,0.1-0.3,0.1-0.5,0
	c-0.1,0-0.1-0.3-0.1-0.4s0.1-0.2,0.1-0.3c0.7-2.1,1.4-4.3,2-6.4c0.3-0.9,0-1.7-0.9-1.9c-0.4-0.1-1,0-1.4,0.1c-1,0.4-1.8,1.1-2.5,1.9
	C8.8,11.1,8.7,11.5,8.8,12z M12.2,6.1c0,0.8,0.6,1.5,1.5,1.5s1.6-0.6,1.6-1.5c0-0.8-0.7-1.5-1.6-1.5C12.8,4.6,12.2,5.2,12.2,6.1z"/>
</svg>
